<svg width="812" height="180" viewBox="0 0 812 180" fill="none" xmlns="http://www.w3.org/2000/svg">
<path d="M193.1 144.2C187.5 141.8 182.9 138.6 179.3 134.5C175.7 130.5 173.3 126 172 121.2L189.9 113.6C191.5 118.5 194.3 122.5 198.3 125.3C202.2 128.2 206.8 129.6 212 129.6C217.3 129.6 221.4 128.6 224.2 126.5C227 124.5 228.4 121.4 228.4 117.3C228.4 112.9 226.8 109.3 223.7 106.5C220.5 103.6 215.2 100.9 207.6 98.1C196.4 93.8 188.2 89.2 183.2 84.1C178.2 79 175.6 72.7 175.6 65.1C175.6 59.8 177 55 179.8 50.8C182.6 46.6 186.6 43.3001 191.9 40.9001C197.1 38.5001 203.3 37.3 210.5 37.3C218.8 37.3 226 38.8001 232 41.7001C238 44.7001 242.9 49.1001 246.5 55.2001L230.6 65.1C228.2 61.7 225.3 59.2001 222.1 57.6001C218.8 56.0001 215.1 55.2001 210.8 55.2001C206.2 55.2001 202.7 56.1001 200.1 58.0001C197.5 59.8001 196.2 62.4001 196.2 65.7001C196.2 69.1001 197.9 72.1 201.3 74.6C204.7 77.1 210 79.8 217.2 82.6C228.3 86.9 236.5 91.8001 241.9 97.5001C247.3 103.2 250 110 250 117.9C250 123.4 248.5 128.4 245.4 133C242.3 137.5 237.9 141.1 232.2 143.8C226.4 146.5 219.6 147.8 211.8 147.8C205 147.9 198.7 146.6 193.1 144.2Z" fill="#373873"/>
<path d="M292.6 37.5V147.9H269.5V37.5H292.6ZM327.7 58.7H355.8L325.4 101.2L358.2 147.9H330.1L299 101.2L327.7 58.7Z" fill="#373873"/>
<path d="M373.4 37.5V63.7H400.1V37.5H373.4ZM373.4 78.8L358.2 100H376.4V147.8H400.1V78.8H373.4Z" fill="#373873"/>
<path d="M432.5 143.5C428.3 140.6 425.1 136.7 422.9 131.7C420.7 126.8 419.7 121.3 419.7 115.2L419.5 76.9001C419.5 62.1001 419.5 50.2 419.5 41.3C419.5 32.4 419.5 52 419.5 37.4H443.8C443.8 71.3 443.8 75 443.8 111.2C443.8 114.2 444.1 116.8 444.7 118.8C445.3 120.8 446.2 122.4 447.6 123.6C449 124.8 450.7 125.4 452.7 125.4C455.2 125.4 457.6 125.1 459.9 124.5L463.7 145.6C459.9 147.1 454.8 147.9 448.3 147.9C442 147.9 436.7 146.4 432.5 143.5Z" fill="#373873"/>
<path d="M496 143.5C491.8 140.6 488.6 136.7 486.4 131.7C484.2 126.8 483.2 121.3 483.2 115.2L483 76.9001C483 62.1001 483 50.2 483 41.3C483 32.4 483 52 483 37.4H507.3C507.3 71.3 507.3 75 507.3 111.2C507.3 114.2 507.6 116.8 508.2 118.8C508.8 120.8 509.7 122.4 511.1 123.6C512.5 124.8 514.2 125.4 516.2 125.4C518.7 125.4 521.1 125.1 523.4 124.5L527.2 145.6C523.4 147.1 518.3 147.9 511.8 147.9C505.5 147.9 500.2 146.4 496 143.5Z" fill="#373873"/>
<path d="M591.3 145.6C587.9 147.1 582.6 147.9 575.6 147.9C566.7 147.9 559.7 145.1 554.5 139.5C549.3 133.9 546.7 126.7 546.5 118L546.3 102.6C546.3 97.4001 546.3 93.2001 546.4 89.9001C546.5 86.6001 546.5 82.4001 546.5 77.4001H531.1L546.3 56.2001V37.6001H571V56.0001H591.3V77.2001H571V111.2C571.1 115.6 571.9 119 573.4 121.4C574.9 123.8 577.1 125.1 580.1 125.2C582.9 125.2 585.3 124.8 587.3 124.1L591.3 145.6Z" fill="#373873"/>
<path d="M666.9 56.7C671.7 58.5 675.1 60.7 677 63.2L676.6 57.9V56.2H701.5V147.8H677.2V144.4L677.8 138.9C675.9 141.6 672.6 143.7 667.8 145.3C663.1 146.9 658.2 147.8 653.3 147.8C643.9 147.8 635.8 145.7 628.8 141.6C621.8 137.5 616.4 131.9 612.6 124.7C608.7 117.6 606.8 109.6 606.8 100.7C606.8 91.2 608.8 82.9001 612.7 75.9001C616.6 68.8001 622.1 63.4 629.2 59.6C636.3 55.8 644.3 53.9 653.3 53.9C657.5 54 662.1 54.9 666.9 56.7ZM666.2 122.5C669.7 120.5 672.4 117.7 674.5 113.9C676.5 110.1 677.5 105.7 677.5 100.8C677.5 95.7 676.5 91.4 674.5 87.7C672.5 84 669.7 81.2 666.2 79.3C662.7 77.3 658.9 76.4001 654.7 76.4001C650.7 76.4001 646.9 77.3 643.3 79.2C639.8 81.1 636.9 83.9 634.8 87.5C632.6 91.2 631.6 95.6 631.6 100.8C631.6 106 632.7 110.4 634.8 114.2C636.9 117.9 639.8 120.7 643.3 122.6C646.8 124.5 650.6 125.4 654.7 125.4C658.9 125.5 662.7 124.5 666.2 122.5Z" fill="#373873"/>
<path d="M749.9 102.7L717.1 58.7001H744.8L764.5 87.2001L784.2 58.7001H811.9L778.9 102.7L811.9 147.8H783.8L764.5 120.1L745 147.8H716.9L749.9 102.7Z" fill="#373873"/>
<path d="M113.9 98.4001L92.9996 76.7L84.5996 68L44.7996 26.7C49.7996 21.9 56.1996 19.5 62.5996 19.5C69.2996 19.5 75.9996 22.1 80.9996 27.3L102.6 49.7C104.3 51.5 106.7 52.5 109.2 52.6H109.4C117.7 52.6 122 42.6 116.2 36.6L94.5996 14.2C77.4996 -3.49996 49.3996 -3.99997 31.6996 13.1L17.9996 26.3L10.3996 33.6C-3.10037 46.6 -3.50042 68.1 9.59958 81.6L19.8996 92.3L54.3996 128L78.6996 153.2C73.6996 158 67.2996 160.4 60.8996 160.4C54.1996 160.4 47.4996 157.8 42.4996 152.6L20.8996 130.2C19.1996 128.4 16.7996 127.4 14.2996 127.3H14.0996C5.79958 127.3 1.49959 137.3 7.29959 143.3L28.8996 165.7C45.9996 183.4 74.0996 183.9 91.7996 166.8L113 146.4C126.5 133.4 126.9 111.9 113.9 98.4001ZM101.6 131.2C99.0996 133.6 95.8996 134.8 92.6996 134.8C89.2996 134.8 85.9996 133.5 83.4996 130.9L21.6996 66.9001C16.7996 61.8001 16.8996 53.7 21.9996 48.8C27.0996 43.9 35.1996 44 40.0996 49.1L101.9 113.1C106.8 118.2 106.7 126.3 101.6 131.2Z" fill="#373873"/>
</svg>
