<svg width="124" height="180" viewBox="0 0 124 180" fill="none" xmlns="http://www.w3.org/2000/svg">
<path d="M113.9 98.4001L92.9996 76.7L84.5996 68L44.7996 26.7C49.7996 21.9 56.1996 19.5 62.5996 19.5C69.2996 19.5 75.9996 22.1 80.9996 27.3L102.6 49.7C104.3 51.5 106.7 52.5 109.2 52.6H109.4C117.7 52.6 122 42.6 116.2 36.6L94.5996 14.2C77.4996 -3.49996 49.3996 -3.99997 31.6996 13.1L17.9996 26.3L10.3996 33.6C-3.10037 46.6 -3.50042 68.1 9.59958 81.6L19.8996 92.3L54.3996 128L78.6996 153.2C73.6996 158 67.2996 160.4 60.8996 160.4C54.1996 160.4 47.4996 157.8 42.4996 152.6L20.8996 130.2C19.1996 128.4 16.7996 127.4 14.2996 127.3H14.0996C5.79958 127.3 1.49959 137.3 7.29959 143.3L28.8996 165.7C45.9996 183.4 74.0996 183.9 91.7996 166.8L113 146.4C126.5 133.4 126.9 111.9 113.9 98.4001ZM101.6 131.2C99.0996 133.6 95.8996 134.8 92.6996 134.8C89.2996 134.8 85.9996 133.5 83.4996 130.9L21.6996 66.9001C16.7996 61.8001 16.8996 53.7 21.9996 48.8C27.0996 43.9 35.1996 44 40.0996 49.1L101.9 113.1C106.8 118.2 106.7 126.3 101.6 131.2Z" fill="#373873"/>
</svg>
